<svg xmlns="http://www.w3.org/2000/svg" xmlns:xlink="http://www.w3.org/1999/xlink" width="400" height="400" version="1.1" viewBox="0 0 502 502"><g id="Page-1" fill="none" fill-rule="evenodd" stroke="none" stroke-width="1"><g id="All" transform="translate(1.000000, 1.000000)"><g id="All-without-circles"><g id="Back" stroke="#000" stroke-width="2"><g id="Group"><rect id="Rectangle-2" width="100" height="100" x="0" y="0"/><rect id="Rectangle-2" width="100" height="100" x="100" y="0"/><rect id="Rectangle-2" width="100" height="100" x="200" y="0"/><rect id="Rectangle-2" width="100" height="100" x="300" y="0"/><rect id="Rectangle-2" width="100" height="100" x="400" y="0"/></g><g id="Group" transform="translate(0.000000, 100.000000)"><rect id="Rectangle-2" width="100" height="100" x="0" y="0"/><rect id="Rectangle-2" width="100" height="100" x="100" y="0"/><rect id="Rectangle-2" width="100" height="100" x="200" y="0"/><rect id="Rectangle-2" width="100" height="100" x="300" y="0"/><rect id="Rectangle-2" width="100" height="100" x="400" y="0"/></g><g id="Group" transform="translate(0.000000, 200.000000)"><rect id="Rectangle-2" width="100" height="100" x="0" y="0"/><rect id="Rectangle-2" width="100" height="100" x="100" y="0"/><rect id="Rectangle-2" width="100" height="100" x="200" y="0"/><rect id="Rectangle-2" width="100" height="100" x="300" y="0"/><rect id="Rectangle-2" width="100" height="100" x="400" y="0"/></g><g id="Group" transform="translate(0.000000, 300.000000)"><rect id="Rectangle-2" width="100" height="100" x="0" y="0"/><rect id="Rectangle-2" width="100" height="100" x="100" y="0"/><rect id="Rectangle-2" width="100" height="100" x="200" y="0"/><rect id="Rectangle-2" width="100" height="100" x="300" y="0"/><rect id="Rectangle-2" width="100" height="100" x="400" y="0"/></g><g id="Group" transform="translate(0.000000, 400.000000)"><rect id="Rectangle-2" width="100" height="100" x="0" y="0"/><rect id="Rectangle-2" width="100" height="100" x="100" y="0"/><rect id="Rectangle-2" width="100" height="100" x="200" y="0"/><rect id="Rectangle-2" width="100" height="100" x="300" y="0"/><rect id="Rectangle-2" width="100" height="100" x="400" y="0"/></g></g><g id="Group-5" transform="translate(60.000000, 40.000000)"><path id="Line" stroke="#4990E2" stroke-linecap="square" stroke-width="5" d="M0,10 L80,10"/><polygon id="Triangle-2" fill="#4990E2" points="78 0 88 20 68 20" transform="translate(78.000000, 10.000000) rotate(-270.000000) translate(-78.000000, -10.000000)"/><polygon id="Triangle-2" fill="#4990E2" points="190 88 200 108 180 108" transform="translate(190.000000, 98.000000) rotate(-180.000000) translate(-190.000000, -98.000000)"/><polygon id="Triangle-2" fill="#4990E2" points="190 188 200 208 180 208" transform="translate(190.000000, 198.000000) rotate(-180.000000) translate(-190.000000, -198.000000)"/><polygon id="Triangle-2" fill="#4990E2" points="190 288 200 308 180 308" transform="translate(190.000000, 298.000000) rotate(-180.000000) translate(-190.000000, -298.000000)"/><polygon id="Triangle-2" fill="#4990E2" points="290 388 300 408 280 408" transform="translate(290.000000, 398.000000) rotate(-180.000000) translate(-290.000000, -398.000000)"/><polygon id="Triangle-2" fill="#4990E2" points="178 0 188 20 168 20" transform="translate(178.000000, 10.000000) rotate(-270.000000) translate(-178.000000, -10.000000)"/><polygon id="Triangle-2" fill="#4990E2" points="278 300 288 320 268 320" transform="translate(278.000000, 310.000000) rotate(-270.000000) translate(-278.000000, -310.000000)"/><polygon id="Triangle-2" fill="#4990E2" points="378 400 388 420 368 420" transform="translate(378.000000, 410.000000) rotate(-270.000000) translate(-378.000000, -410.000000)"/><path id="Line" stroke="#4990E2" stroke-linecap="square" stroke-width="5" d="M100,10 L180,10"/><path id="Line" stroke="#4990E2" stroke-linecap="square" stroke-width="5" d="M200,310 L280,310"/><path id="Line" stroke="#4990E2" stroke-linecap="square" stroke-width="5" d="M300,410 L380,410"/><path id="Line" stroke="#4990E2" stroke-linecap="square" stroke-width="5" d="M190,20 L190,100"/><path id="Line" stroke="#4990E2" stroke-linecap="square" stroke-width="5" d="M190,120 L190,200"/><path id="Line" stroke="#4990E2" stroke-linecap="square" stroke-width="5" d="M190,220 L190,300"/><path id="Line" stroke="#4990E2" stroke-linecap="square" stroke-width="5" d="M290,320 L290,400"/></g><g id="Group-5" stroke="#F6A623" transform="translate(40.000000, 60.000000)"><path id="Line" stroke-linecap="square" stroke-width="5" d="M20,190 L100,190"/><polygon id="Triangle-2" fill="#F6A623" points="98 80 108 100 88 100" transform="translate(98.000000, 190.000000) rotate(-270.000000) translate(-98.000000, -90.000000)"/><polygon id="Triangle-2" fill="#F6A623" points="10 67 20 87 0 87" transform="translate(10.000000, 77.000000) rotate(-180.000000) translate(-10.000000, -77.000000)"/><polygon id="Triangle-2" fill="#F6A623" points="310 167 320 187 300 187" transform="translate(10.000000, 177.000000) rotate(-180.000000) translate(-310.000000, -177.000000)"/><polygon id="Triangle-2" fill="#F6A623" points="310 267 320 287 300 287" transform="translate(310.000000, 277.000000) rotate(-180.000000) translate(-310.000000, -277.000000)"/><polygon id="Triangle-2" fill="#F6A623" points="410 367 420 387 400 387" transform="translate(410.000000, 377.000000) rotate(-180.000000) translate(-410.000000, -377.000000)"/><polygon id="Triangle-2" fill="#F6A623" points="198 80 208 100 188 100" transform="translate(198.000000, 190.000000) rotate(-270.000000) translate(-198.000000, -90.000000)"/><polygon id="Triangle-2" fill="#F6A623" points="398 280 408 300 388 300" transform="translate(398.000000, 290.000000) rotate(-270.000000) translate(-398.000000, -290.000000)"/><polygon id="Triangle-2" fill="#F6A623" points="298 80 308 100 288 100" transform="translate(298.000000, 190.000000) rotate(-270.000000) translate(-298.000000, -90.000000)"/><path id="Line" stroke-linecap="square" stroke-width="5" d="M120,190 L200,190"/><path id="Line" stroke-linecap="square" stroke-width="5" d="M220,190 L300,190"/><path id="Line" stroke-linecap="square" stroke-width="5" d="M320,290 L400,290"/><path id="Line" stroke-linecap="square" stroke-width="5" d="M10,0 L10,80"/><path id="Line" stroke-linecap="square" stroke-width="5" d="M10,100 L10,180"/><path id="Line" stroke-linecap="square" stroke-width="5" d="M310,200 L310,280"/><path id="Line" stroke-linecap="square" stroke-width="5" d="M410,300 L410,380"/></g></g></g></g></svg>